<!-- Generated by IcoMoon.io -->
<svg version="1.1" xmlns="http://www.w3.org/2000/svg" width="24" height="24" viewBox="0 0 24 24">
<title>aperture</title>
<path d="M11.422 7l2.223-3.85c1.825 0.337 3.457 1.225 4.719 2.486 0.416 0.416 0.792 0.873 1.121 1.364h-5.194zM7.38 10l-2.222-3.847c0.153-0.179 0.312-0.351 0.478-0.517 1.5-1.5 3.525-2.472 5.775-2.617l-2.592 4.49zM7.958 15h-4.446c-0.332-0.938-0.512-1.948-0.512-3 0-1.43 0.333-2.781 0.926-3.982l2.6 4.504zM17.473 11.478l-1.431-2.478h4.446c0.332 0.938 0.512 1.948 0.512 3 0 1.43-0.333 2.781-0.926 3.982l-2.576-4.462zM12.588 20.981l4.032-6.981 2.222 3.848c-0.153 0.178-0.312 0.351-0.478 0.516-1.5 1.5-3.525 2.472-5.775 2.617zM10.7 22.924c0.046 0.008 0.092 0.014 0.139 0.015 0.381 0.040 0.769 0.061 1.161 0.061 3.037 0 5.789-1.232 7.778-3.222 0.366-0.366 0.706-0.757 1.017-1.171 0.042-0.047 0.079-0.097 0.11-0.149 1.318-1.813 2.095-4.046 2.095-6.458 0-1.539-0.317-3.005-0.888-4.336-0.016-0.044-0.034-0.086-0.055-0.126-0.553-1.244-1.33-2.367-2.279-3.316-1.701-1.701-3.96-2.849-6.478-3.146-0.046-0.008-0.092-0.014-0.139-0.015-0.381-0.040-0.769-0.061-1.161-0.061-3.037 0-5.789 1.232-7.778 3.222-0.366 0.365-0.706 0.757-1.017 1.171-0.042 0.047-0.079 0.097-0.111 0.149-1.317 1.813-2.094 4.046-2.094 6.458 0 1.539 0.317 3.005 0.888 4.336 0.016 0.044 0.034 0.086 0.055 0.126 0.553 1.244 1.33 2.367 2.279 3.316 1.701 1.701 3.96 2.849 6.478 3.146zM12.578 17l-2.223 3.85c-1.825-0.337-3.457-1.225-4.719-2.486-0.416-0.416-0.792-0.873-1.121-1.364h5.194zM15.465 12l-1.732 3h-3.466l-1.732-3 1.732-3h3.466z"></path>
</svg>
