<!-- Generated by IcoMoon.io -->
<svg version="1.1" xmlns="http://www.w3.org/2000/svg" width="24" height="24" viewBox="0 0 24 24">
<title>bluetooth</title>
<path d="M13 9.586v-6.172l3.086 3.086zM13 14.414l3.086 3.086-3.086 3.086zM5.793 7.207l4.793 4.793-4.793 4.793c-0.391 0.391-0.391 1.024 0 1.414s1.024 0.391 1.414 0l3.793-3.793v8.586c0 0.256 0.098 0.512 0.293 0.707 0.391 0.391 1.024 0.391 1.414 0l5.5-5.5c0.391-0.391 0.391-1.024 0-1.414l-4.793-4.793 4.793-4.793c0.391-0.391 0.391-1.024 0-1.414l-5.5-5.5c-0.181-0.181-0.431-0.293-0.707-0.293-0.552 0-1 0.448-1 1v8.586l-3.793-3.793c-0.391-0.391-1.024-0.391-1.414 0s-0.391 1.024 0 1.414z"></path>
</svg>
