<!-- Generated by IcoMoon.io -->
<svg version="1.1" xmlns="http://www.w3.org/2000/svg" width="24" height="24" viewBox="0 0 24 24">
<title>chrome</title>
<path d="M7.402 10.033l-2.244-3.881c0.152-0.178 0.312-0.35 0.478-0.516 1.63-1.63 3.878-2.636 6.364-2.636s4.734 1.006 6.364 2.636c0.416 0.416 0.792 0.873 1.121 1.364h-7.485c-1.38 0-2.632 0.561-3.536 1.464-0.447 0.447-0.81 0.978-1.063 1.569zM10.7 22.924c0.046 0.008 0.092 0.014 0.139 0.015 0.381 0.040 0.769 0.061 1.161 0.061 3.037 0 5.789-1.232 7.778-3.222s3.222-4.741 3.222-7.778c0-1.539-0.317-3.005-0.888-4.336-0.016-0.044-0.034-0.086-0.055-0.126-0.553-1.244-1.33-2.367-2.279-3.316-1.989-1.99-4.741-3.222-7.778-3.222s-5.789 1.232-7.778 3.222c-0.366 0.365-0.706 0.757-1.017 1.171-0.042 0.047-0.079 0.097-0.111 0.149-1.317 1.813-2.094 4.046-2.094 6.458 0 3.037 1.232 5.789 3.222 7.778 1.701 1.701 3.96 2.849 6.478 3.146zM12.595 16.965l-2.241 3.885c-1.825-0.337-3.457-1.225-4.718-2.486-1.63-1.63-2.636-3.878-2.636-6.364 0-1.43 0.333-2.782 0.927-3.982l3.643 6.302c0.236 0.45 0.539 0.859 0.894 1.215 0.904 0.904 2.156 1.465 3.536 1.465 0.201 0 0.4-0.012 0.595-0.035zM14.638 13.431c-0.015 0.022-0.030 0.046-0.044 0.069l-0.076 0.132c-0.115 0.176-0.248 0.34-0.396 0.489-0.545 0.544-1.293 0.879-2.122 0.879s-1.577-0.335-2.121-0.879c-0.166-0.166-0.312-0.351-0.436-0.551-0.011-0.024-0.024-0.047-0.037-0.070l-0.082-0.141c-0.207-0.408-0.324-0.87-0.324-1.359 0-0.829 0.335-1.577 0.879-2.121s1.292-0.879 2.121-0.879 1.577 0.335 2.121 0.879 0.879 1.292 0.879 2.121c0 0.518-0.131 1.006-0.362 1.431zM12.588 20.981l3.64-6.311c0.489-0.772 0.772-1.688 0.772-2.67 0-1.125-0.373-2.165-1-3h4.488c0.332 0.938 0.512 1.948 0.512 3 0 2.486-1.006 4.734-2.636 6.364-1.5 1.5-3.525 2.472-5.776 2.617z"></path>
</svg>
