<!-- Generated by IcoMoon.io -->
<svg version="1.1" xmlns="http://www.w3.org/2000/svg" width="24" height="24" viewBox="0 0 24 24">
<title>corner-left-up</title>
<path d="M20 19h-7c-0.829 0-1.577-0.335-2.121-0.879s-0.879-1.292-0.879-2.121v-9.586l3.293 3.293c0.391 0.391 1.024 0.391 1.414 0s0.391-1.024 0-1.414l-5-5c-0.096-0.096-0.206-0.168-0.324-0.217s-0.247-0.076-0.383-0.076-0.265 0.027-0.383 0.076c-0.118 0.049-0.228 0.121-0.324 0.217l-5 5c-0.391 0.391-0.391 1.024 0 1.414s1.024 0.391 1.414 0l3.293-3.293v9.586c0 1.38 0.561 2.632 1.464 3.536s2.156 1.464 3.536 1.464h7c0.552 0 1-0.448 1-1s-0.448-1-1-1z"></path>
</svg>
