<!-- Generated by IcoMoon.io -->
<svg version="1.1" xmlns="http://www.w3.org/2000/svg" width="24" height="24" viewBox="0 0 24 24">
<title>navigation-2</title>
<path d="M12.938 1.654c-0.099-0.266-0.307-0.488-0.593-0.593-0.518-0.191-1.093 0.074-1.284 0.593l-7 19c-0.098 0.269-0.082 0.576 0.070 0.842 0.274 0.48 0.885 0.646 1.364 0.372l6.505-3.716 6.504 3.716c0.249 0.141 0.554 0.176 0.842 0.070 0.518-0.191 0.784-0.766 0.593-1.284zM12 4.893l5.113 13.877-4.617-2.638c-0.317-0.181-0.691-0.17-0.992 0l-4.617 2.638z"></path>
</svg>
