<!-- Generated by IcoMoon.io -->
<svg version="1.1" xmlns="http://www.w3.org/2000/svg" width="24" height="24" viewBox="0 0 24 24">
<title>pocket</title>
<path d="M4 2c-0.828 0-1.58 0.337-2.121 0.879s-0.879 1.293-0.879 2.121v6c0 3.037 1.232 5.789 3.222 7.778s4.741 3.222 7.778 3.222 5.789-1.232 7.778-3.222 3.222-4.741 3.222-7.778v-6c0-0.828-0.337-1.58-0.879-2.121s-1.293-0.879-2.121-0.879zM4 4h16c0.276 0 0.525 0.111 0.707 0.293s0.293 0.431 0.293 0.707v6c0 2.486-1.006 4.734-2.636 6.364s-3.878 2.636-6.364 2.636-4.734-1.006-6.364-2.636-2.636-3.878-2.636-6.364v-6c0-0.276 0.111-0.525 0.293-0.707s0.431-0.293 0.707-0.293zM7.293 10.707l4 4c0.391 0.391 1.024 0.391 1.414 0l4-4c0.391-0.391 0.391-1.024 0-1.414s-1.024-0.391-1.414 0l-3.293 3.293-3.293-3.293c-0.391-0.391-1.024-0.391-1.414 0s-0.391 1.024 0 1.414z"></path>
</svg>
