<!-- Generated by IcoMoon.io -->
<svg version="1.1" xmlns="http://www.w3.org/2000/svg" width="24" height="24" viewBox="0 0 24 24">
<title>rotate-ccw</title>
<path d="M2.567 15.332c0.918 2.604 2.805 4.591 5.112 5.696s5.038 1.33 7.643 0.413 4.591-2.805 5.696-5.112 1.33-5.038 0.413-7.643-2.805-4.591-5.112-5.696-5.038-1.33-7.643-0.413c-1.474 0.52-2.755 1.352-3.749 2.362l-2.927 2.75v-3.689c0-0.552-0.448-1-1-1s-1 0.448-1 1v5.998c0 0.015 0 0.030 0.001 0.044 0.005 0.115 0.029 0.225 0.069 0.326 0.040 0.102 0.098 0.198 0.173 0.285 0.012 0.013 0.024 0.027 0.036 0.039 0.091 0.095 0.201 0.172 0.324 0.225 0.119 0.051 0.249 0.080 0.386 0.082 0.004 0 0.007 0 0.011 0h6c0.552 0 1-0.448 1-1s-0.448-0.999-1-0.999h-3.476l2.829-2.659c0.779-0.792 1.8-1.459 2.987-1.877 2.084-0.734 4.266-0.555 6.114 0.33s3.356 2.473 4.090 4.557 0.555 4.266-0.33 6.114-2.473 3.356-4.557 4.090-4.266 0.555-6.114-0.33-3.356-2.473-4.090-4.557c-0.184-0.521-0.755-0.794-1.275-0.611s-0.794 0.755-0.611 1.275z"></path>
</svg>
