<!-- Generated by IcoMoon.io -->
<svg version="1.1" xmlns="http://www.w3.org/2000/svg" width="24" height="24" viewBox="0 0 24 24">
<title>thermometer</title>
<path d="M13 14.76c0.002 0.329 0.161 0.646 0.453 0.837 0.349 0.228 0.686 0.554 0.958 0.96 0.537 0.804 0.698 1.747 0.523 2.627s-0.684 1.69-1.488 2.227-1.747 0.698-2.627 0.523-1.69-0.684-2.227-1.488-0.698-1.747-0.523-2.627 0.684-1.69 1.488-2.227c0.268-0.182 0.443-0.487 0.443-0.832v-11.26c0-0.414 0.167-0.788 0.439-1.061s0.647-0.439 1.061-0.439 0.788 0.167 1.061 0.439 0.439 0.647 0.439 1.061zM15 14.256v-10.756c0-0.966-0.393-1.843-1.025-2.475s-1.509-1.025-2.475-1.025-1.843 0.393-2.475 1.025-1.025 1.509-1.025 2.475v10.759c-1.007 0.829-1.654 1.96-1.894 3.17-0.274 1.379-0.022 2.866 0.821 4.129s2.121 2.064 3.5 2.339 2.866 0.022 4.129-0.821 2.064-2.121 2.339-3.5 0.022-2.866-0.821-4.129c-0.307-0.459-0.673-0.86-1.073-1.19z"></path>
</svg>
