<!-- Generated by IcoMoon.io -->
<svg version="1.1" xmlns="http://www.w3.org/2000/svg" width="24" height="24" viewBox="0 0 24 24">
<title>trending-down</title>
<path d="M17 19h6c0.136 0 0.265-0.027 0.383-0.076s0.228-0.121 0.324-0.217 0.168-0.206 0.217-0.324c0.049-0.118 0.076-0.247 0.076-0.383v-6c0-0.552-0.448-1-1-1s-1 0.448-1 1v3.586l-7.793-7.793c-0.391-0.391-1.024-0.391-1.414 0l-4.293 4.293-6.793-6.793c-0.391-0.391-1.024-0.391-1.414 0s-0.391 1.024 0 1.414l7.5 7.5c0.391 0.391 1.024 0.391 1.414 0l4.293-4.293 7.086 7.086h-3.586c-0.552 0-1 0.448-1 1s0.448 1 1 1z"></path>
</svg>
