<!-- Generated by IcoMoon.io -->
<svg version="1.1" xmlns="http://www.w3.org/2000/svg" width="24" height="24" viewBox="0 0 24 24">
<title>cast</title>
<path d="M1.8 17.080c0.938 0.191 1.729 0.694 2.292 1.386 0.405 0.497 0.693 1.093 0.829 1.741 0.114 0.54 0.644 0.886 1.185 0.772s0.886-0.644 0.772-1.185c-0.202-0.96-0.63-1.847-1.235-2.591-0.845-1.038-2.038-1.796-3.443-2.083-0.541-0.11-1.069 0.239-1.18 0.78s0.239 1.069 0.78 1.18zM1.889 13.044c2.001 0.223 3.744 1.163 5.006 2.546 1.119 1.226 1.859 2.799 2.061 4.526 0.064 0.549 0.561 0.941 1.109 0.877s0.941-0.561 0.877-1.109c-0.251-2.15-1.174-4.112-2.57-5.642-1.578-1.729-3.763-2.908-6.263-3.186-0.549-0.061-1.043 0.334-1.104 0.883s0.334 1.043 0.883 1.104zM3 8v-2c0-0.276 0.111-0.525 0.293-0.707s0.431-0.293 0.707-0.293h16c0.276 0 0.525 0.111 0.707 0.293s0.293 0.431 0.293 0.707v12c0 0.276-0.111 0.525-0.293 0.707s-0.431 0.293-0.707 0.293h-6c-0.552 0-1 0.448-1 1s0.448 1 1 1h6c0.828 0 1.58-0.337 2.121-0.879s0.879-1.293 0.879-2.121v-12c0-0.828-0.337-1.58-0.879-2.121s-1.293-0.879-2.121-0.879h-16c-0.828 0-1.58 0.337-2.121 0.879s-0.879 1.293-0.879 2.121v2c0 0.552 0.448 1 1 1s1-0.448 1-1zM2 21c0.552 0 1-0.448 1-1s-0.448-1-1-1-1 0.448-1 1 0.448 1 1 1z"></path>
</svg>
