<!-- Generated by IcoMoon.io -->
<svg version="1.1" xmlns="http://www.w3.org/2000/svg" width="24" height="24" viewBox="0 0 24 24">
<title>cloud-off</title>
<path d="M23.531 17.34c0.646-1.525 0.612-3.17 0.036-4.592s-1.696-2.627-3.221-3.273c-0.776-0.328-1.588-0.483-2.357-0.475h-0.506c-0.62-1.78-1.761-3.26-3.211-4.309-1.298-0.938-2.844-1.531-4.487-1.687-0.55-0.052-1.038 0.351-1.090 0.901s0.351 1.038 0.901 1.090c1.286 0.122 2.493 0.586 3.505 1.317 1.283 0.928 2.252 2.286 2.671 3.934 0.112 0.437 0.503 0.754 0.968 0.754h1.271c0.49-0.005 1.030 0.094 1.555 0.317 1.017 0.431 1.763 1.232 2.148 2.182s0.407 2.044-0.024 3.061c-0.215 0.509 0.022 1.095 0.531 1.311s1.095-0.022 1.311-0.531zM4.854 6.268l12.732 12.732h-8.596c-0.96 0.010-1.903-0.172-2.774-0.527-1.431-0.583-2.669-1.635-3.471-3.085-0.935-1.692-1.097-3.601-0.601-5.324 0.432-1.5 1.36-2.854 2.709-3.797zM0.293 1.707l3.129 3.13c-1.581 1.2-2.676 2.856-3.2 4.675-0.637 2.212-0.43 4.67 0.773 6.845 1.030 1.863 2.626 3.219 4.466 3.969 1.117 0.454 2.324 0.686 3.549 0.674h8.99c0.489-0.001 0.967-0.060 1.417-0.169l2.876 2.876c0.391 0.391 1.024 0.391 1.414 0s0.391-1.024 0-1.414l-22-22c-0.391-0.391-1.024-0.391-1.414 0s-0.391 1.024 0 1.414z"></path>
</svg>
