<!-- Generated by IcoMoon.io -->
<svg version="1.1" xmlns="http://www.w3.org/2000/svg" width="24" height="24" viewBox="0 0 24 24">
<title>cloud-lightning</title>
<path d="M19.199 17.88c1.623-0.33 2.961-1.288 3.808-2.566s1.208-2.884 0.878-4.507c-0.303-1.491-1.136-2.742-2.267-3.592-1.018-0.767-2.279-1.21-3.614-1.215h-0.524c-0.725-2.057-2.143-3.708-3.915-4.753-1.983-1.169-4.415-1.582-6.821-0.961s-4.334 2.162-5.503 4.144-1.582 4.415-0.961 6.821c0.597 2.313 2.043 4.184 3.919 5.365 0.143 0.090 0.288 0.176 0.436 0.258 0.483 0.268 1.092 0.093 1.359-0.39s0.093-1.092-0.39-1.359c-0.115-0.064-0.229-0.131-0.34-0.201-1.462-0.921-2.583-2.374-3.048-4.173-0.483-1.872-0.163-3.761 0.747-5.305s2.408-2.739 4.28-3.223 3.761-0.163 5.305 0.747 2.739 2.408 3.223 4.28c0.116 0.435 0.506 0.75 0.969 0.75h1.256c0.896 0.004 1.74 0.3 2.42 0.812 0.754 0.567 1.307 1.397 1.509 2.392 0.22 1.083-0.019 2.15-0.585 3.005s-1.456 1.491-2.539 1.711c-0.541 0.11-0.891 0.638-0.781 1.179s0.638 0.891 1.179 0.781zM12.168 10.445l-4 6c-0.306 0.46-0.182 1.080 0.277 1.387 0.172 0.115 0.367 0.169 0.555 0.168h4.131l-2.964 4.445c-0.306 0.46-0.182 1.080 0.277 1.387s1.080 0.182 1.387-0.277l4-6c0.106-0.156 0.169-0.348 0.169-0.555 0-0.552-0.448-1-1-1h-4.131l2.964-4.445c0.306-0.46 0.182-1.080-0.277-1.387s-1.080-0.182-1.387 0.277z"></path>
</svg>
