<!-- Generated by IcoMoon.io -->
<svg version="1.1" xmlns="http://www.w3.org/2000/svg" width="24" height="24" viewBox="0 0 24 24">
<title>cloud-drizzle</title>
<path d="M7 19v2c0 0.552 0.448 1 1 1s1-0.448 1-1v-2c0-0.552-0.448-1-1-1s-1 0.448-1 1zM7 13v2c0 0.552 0.448 1 1 1s1-0.448 1-1v-2c0-0.552-0.448-1-1-1s-1 0.448-1 1zM15 19v2c0 0.552 0.448 1 1 1s1-0.448 1-1v-2c0-0.552-0.448-1-1-1s-1 0.448-1 1zM15 13v2c0 0.552 0.448 1 1 1s1-0.448 1-1v-2c0-0.552-0.448-1-1-1s-1 0.448-1 1zM11 21v2c0 0.552 0.448 1 1 1s1-0.448 1-1v-2c0-0.552-0.448-1-1-1s-1 0.448-1 1zM11 15v2c0 0.552 0.448 1 1 1s1-0.448 1-1v-2c0-0.552-0.448-1-1-1s-1 0.448-1 1zM20.401 17.496c1.517-0.665 2.623-1.883 3.181-3.312s0.572-3.074-0.092-4.591c-0.574-1.311-1.563-2.316-2.752-2.925-0.836-0.428-1.771-0.66-2.73-0.668h-0.528c-0.725-2.057-2.143-3.708-3.915-4.753-1.983-1.169-4.415-1.582-6.821-0.961s-4.334 2.161-5.503 4.144-1.582 4.415-0.961 6.821c0.509 1.97 1.634 3.623 3.099 4.783 0.433 0.343 1.062 0.27 1.405-0.163s0.27-1.062-0.163-1.405c-1.132-0.897-2.008-2.179-2.405-3.716-0.483-1.871-0.163-3.76 0.748-5.305s2.408-2.739 4.28-3.223 3.761-0.163 5.305 0.748 2.739 2.408 3.223 4.28c0.115 0.435 0.505 0.75 0.968 0.75h1.252c0.647 0.005 1.275 0.162 1.834 0.448 0.793 0.406 1.448 1.073 1.832 1.947 0.443 1.012 0.435 2.106 0.062 3.061s-1.109 1.765-2.121 2.208c-0.506 0.222-0.736 0.811-0.515 1.317s0.811 0.736 1.317 0.515z"></path>
</svg>
