<!-- Generated by IcoMoon.io -->
<svg version="1.1" xmlns="http://www.w3.org/2000/svg" width="24" height="24" viewBox="0 0 24 24">
<title>corner-right-up</title>
<path d="M4 21h7c1.38 0 2.632-0.561 3.536-1.464s1.464-2.156 1.464-3.536v-9.586l3.293 3.293c0.391 0.391 1.024 0.391 1.414 0s0.391-1.024 0-1.414l-5-5c-0.092-0.092-0.202-0.166-0.324-0.217-0.362-0.15-0.795-0.078-1.090 0.217l-5 5c-0.391 0.391-0.391 1.024 0 1.414s1.024 0.391 1.414 0l3.293-3.293v9.586c0 0.829-0.335 1.577-0.879 2.121s-1.292 0.879-2.121 0.879h-7c-0.552 0-1 0.448-1 1s0.448 1 1 1z"></path>
</svg>
