<!-- Generated by IcoMoon.io -->
<svg version="1.1" xmlns="http://www.w3.org/2000/svg" width="24" height="24" viewBox="0 0 24 24">
<title>corner-up-left</title>
<path d="M21 20v-7c0-1.38-0.561-2.632-1.464-3.536s-2.156-1.464-3.536-1.464h-9.586l3.293-3.293c0.391-0.391 0.391-1.024 0-1.414s-1.024-0.391-1.414 0l-5 5c-0.096 0.096-0.168 0.206-0.217 0.324s-0.076 0.247-0.076 0.383 0.027 0.265 0.076 0.383c0.049 0.118 0.121 0.228 0.217 0.324l5 5c0.391 0.391 1.024 0.391 1.414 0s0.391-1.024 0-1.414l-3.293-3.293h9.586c0.829 0 1.577 0.335 2.121 0.879s0.879 1.292 0.879 2.121v7c0 0.552 0.448 1 1 1s1-0.448 1-1z"></path>
</svg>
