<!-- Generated by IcoMoon.io -->
<svg version="1.1" xmlns="http://www.w3.org/2000/svg" width="24" height="24" viewBox="0 0 24 24">
<title>corner-right-down</title>
<path d="M4 5h7c0.829 0 1.577 0.335 2.121 0.879s0.879 1.292 0.879 2.121v9.586l-3.293-3.293c-0.391-0.391-1.024-0.391-1.414 0s-0.391 1.024 0 1.414l5 5c0.092 0.092 0.202 0.166 0.324 0.217 0.245 0.101 0.521 0.101 0.766 0 0.118-0.049 0.228-0.121 0.324-0.217l5-5c0.391-0.391 0.391-1.024 0-1.414s-1.024-0.391-1.414 0l-3.293 3.293v-9.586c0-1.38-0.561-2.632-1.464-3.536s-2.156-1.464-3.536-1.464h-7c-0.552 0-1 0.448-1 1s0.448 1 1 1z"></path>
</svg>
