<!-- Generated by IcoMoon.io -->
<svg version="1.1" xmlns="http://www.w3.org/2000/svg" width="24" height="24" viewBox="0 0 24 24">
<title>crop</title>
<path d="M7.077 7.077l8.932-0.077c0.268 0 0.516 0.111 0.698 0.293s0.293 0.431 0.293 0.707v9h-9c-0.276 0-0.525-0.111-0.707-0.293s-0.293-0.431-0.293-0.698zM1.009 7.13l4.068-0.035-0.077 8.896c0 0.837 0.337 1.588 0.879 2.13s1.293 0.879 2.121 0.879h9v4c0 0.552 0.448 1 1 1s1-0.448 1-1v-4h4c0.552 0 1-0.448 1-1s-0.448-1-1-1h-4v-9c0-0.828-0.337-1.58-0.879-2.121s-1.293-0.879-2.13-0.879l-8.896 0.077 0.035-4.068c0.005-0.553-0.439-1.004-0.991-1.009s-1.004 0.439-1.009 0.991l-0.036 4.103-4.103 0.036c-0.552 0.005-0.996 0.456-0.991 1.009s0.456 0.996 1.009 0.991z"></path>
</svg>
