<!-- Generated by IcoMoon.io -->
<svg version="1.1" xmlns="http://www.w3.org/2000/svg" width="24" height="24" viewBox="0 0 24 24">
<title>crosshair</title>
<path d="M23 12c0-3.037-1.232-5.789-3.222-7.778s-4.741-3.222-7.778-3.222-5.789 1.232-7.778 3.222-3.222 4.741-3.222 7.778 1.232 5.789 3.222 7.778 4.741 3.222 7.778 3.222 5.789-1.232 7.778-3.222 3.222-4.741 3.222-7.778zM13 20.945v-2.945c0-0.552-0.448-1-1-1s-1 0.448-1 1v2.945c-2.086-0.23-3.956-1.173-5.364-2.581s-2.351-3.278-2.581-5.364h2.945c0.552 0 1-0.448 1-1s-0.448-1-1-1h-2.945c0.23-2.086 1.173-3.956 2.581-5.364s3.278-2.351 5.364-2.581v2.945c0 0.552 0.448 1 1 1s1-0.448 1-1v-2.945c2.086 0.23 3.956 1.173 5.364 2.581s2.351 3.278 2.581 5.364h-2.945c-0.552 0-1 0.448-1 1s0.448 1 1 1h2.945c-0.23 2.086-1.173 3.956-2.581 5.364s-3.278 2.351-5.364 2.581z"></path>
</svg>
