<!-- Generated by IcoMoon.io -->
<svg version="1.1" xmlns="http://www.w3.org/2000/svg" width="24" height="24" viewBox="0 0 24 24">
<title>droplet</title>
<path d="M12.707 1.983c-0.391-0.391-1.025-0.39-1.415 0.001l-5.653 5.663c-1.757 1.758-2.635 4.063-2.634 6.365s0.88 4.607 2.638 6.363c1.756 1.755 4.059 2.633 6.358 2.634 2.308-0.001 4.613-0.881 6.37-2.638 1.755-1.756 2.633-4.059 2.634-6.358-0.001-2.309-0.881-4.613-2.638-6.369zM12.001 4.105l4.952 4.952c1.368 1.367 2.052 3.156 2.052 4.949s-0.682 3.583-2.049 4.95-3.156 2.051-4.949 2.052-3.583-0.682-4.95-2.049-2.051-3.156-2.052-4.949 0.682-3.583 2.049-4.95z"></path>
</svg>
