<!-- Generated by IcoMoon.io -->
<svg version="1.1" xmlns="http://www.w3.org/2000/svg" width="24" height="24" viewBox="0 0 24 24">
<title>fast-forward</title>
<path d="M14 16.955v-9.91l6.371 4.955zM3 16.955v-9.91l6.371 4.955zM2.614 19.789l9-7c0.251-0.195 0.383-0.486 0.386-0.78v6.991c0 0.552 0.448 1 1 1 0.232 0 0.446-0.079 0.614-0.211l9-7c0.436-0.339 0.514-0.967 0.175-1.403-0.054-0.069-0.115-0.129-0.175-0.175l-9-7c-0.436-0.339-1.064-0.261-1.403 0.175-0.143 0.184-0.212 0.401-0.211 0.614v6.99c-0.002-0.211-0.071-0.424-0.211-0.604-0.054-0.069-0.115-0.129-0.175-0.175l-9-7c-0.436-0.339-1.064-0.261-1.403 0.175-0.143 0.184-0.212 0.401-0.211 0.614v14c0 0.552 0.448 1 1 1 0.232 0 0.446-0.079 0.614-0.211z"></path>
</svg>
