<!-- Generated by IcoMoon.io -->
<svg version="1.1" xmlns="http://www.w3.org/2000/svg" width="24" height="24" viewBox="0 0 24 24">
<title>life-buoy</title>
<path d="M23 12c0-3.037-1.232-5.789-3.222-7.778s-4.741-3.222-7.778-3.222-5.789 1.232-7.778 3.222-3.222 4.741-3.222 7.778 1.232 5.789 3.222 7.778 4.741 3.222 7.778 3.222 5.789-1.232 7.778-3.222 3.222-4.741 3.222-7.778zM15 12c0 0.829-0.335 1.577-0.879 2.121s-1.292 0.879-2.121 0.879-1.577-0.335-2.121-0.879-0.879-1.292-0.879-2.121 0.335-1.577 0.879-2.121 1.292-0.879 2.121-0.879 1.577 0.335 2.121 0.879 0.879 1.292 0.879 2.121zM17.618 4.968l-2.86 2.86c0 0 0 0 0 0-0.791-0.523-1.739-0.828-2.758-0.828s-1.967 0.305-2.757 0.829l-2.86-2.86c1.539-1.233 3.492-1.969 5.617-1.969s4.078 0.736 5.618 1.968zM19.032 6.382c1.232 1.54 1.968 3.493 1.968 5.618s-0.736 4.078-1.968 5.618l-2.86-2.86c0.523-0.791 0.828-1.739 0.828-2.758s-0.305-1.967-0.829-2.757zM7.829 14.757l-2.86 2.86c-1.233-1.539-1.969-3.492-1.969-5.617s0.736-4.078 1.968-5.618l2.86 2.86c-0.523 0.791-0.828 1.739-0.828 2.758s0.305 1.967 0.829 2.757zM6.382 19.032l2.86-2.86c0.791 0.523 1.739 0.828 2.758 0.828s1.967-0.305 2.757-0.829l2.86 2.86c-1.539 1.233-3.492 1.969-5.617 1.969s-4.078-0.736-5.618-1.968z"></path>
</svg>
