<!-- Generated by IcoMoon.io -->
<svg version="1.1" xmlns="http://www.w3.org/2000/svg" width="24" height="24" viewBox="0 0 24 24">
<title>link-2</title>
<path d="M15 8h3c1.105 0 2.103 0.447 2.828 1.172s1.172 1.723 1.172 2.828-0.447 2.103-1.172 2.828-1.723 1.172-2.828 1.172h-3c-0.552 0-1 0.448-1 1s0.448 1 1 1h3c1.657 0 3.158-0.673 4.243-1.757s1.757-2.586 1.757-4.243-0.673-3.158-1.757-4.243-2.586-1.757-4.243-1.757h-3c-0.552 0-1 0.448-1 1s0.448 1 1 1zM9 16h-3c-1.105 0-2.103-0.447-2.828-1.172s-1.172-1.723-1.172-2.828 0.447-2.103 1.172-2.828 1.723-1.172 2.828-1.172h3c0.552 0 1-0.448 1-1s-0.448-1-1-1h-3c-1.657 0-3.158 0.673-4.243 1.757s-1.757 2.586-1.757 4.243 0.673 3.158 1.757 4.243 2.586 1.757 4.243 1.757h3c0.552 0 1-0.448 1-1s-0.448-1-1-1zM8 13h8c0.552 0 1-0.448 1-1s-0.448-1-1-1h-8c-0.552 0-1 0.448-1 1s0.448 1 1 1z"></path>
</svg>
