<!-- Generated by IcoMoon.io -->
<svg version="1.1" xmlns="http://www.w3.org/2000/svg" width="24" height="24" viewBox="0 0 24 24">
<title>mouse-pointer</title>
<path d="M4.857 4.857l12.284 5.118-4.883 1.658c-0.285 0.098-0.522 0.32-0.625 0.625l-1.658 4.883zM13.010 14.424l5.283 5.283c0.391 0.391 1.024 0.391 1.414 0s0.391-1.024 0-1.414l-5.283-5.283 5.868-1.993c0.523-0.178 0.803-0.746 0.625-1.268-0.096-0.283-0.306-0.494-0.562-0.601l-16.97-7.070c-0.51-0.212-1.095 0.029-1.308 0.539-0.107 0.256-0.099 0.532 0 0.769l7.070 16.97c0.212 0.51 0.798 0.751 1.308 0.539 0.275-0.115 0.472-0.338 0.562-0.601z"></path>
</svg>
