<!-- Generated by IcoMoon.io -->
<svg version="1.1" xmlns="http://www.w3.org/2000/svg" width="24" height="24" viewBox="0 0 24 24">
<title>navigation</title>
<path d="M2.572 10.096c-0.262 0.125-0.467 0.36-0.542 0.661-0.134 0.536 0.192 1.079 0.728 1.213l7.418 1.854 1.854 7.418c0.071 0.281 0.261 0.528 0.542 0.661 0.499 0.236 1.095 0.023 1.332-0.476l9-19c0.124-0.263 0.133-0.575 0-0.856-0.236-0.499-0.833-0.712-1.332-0.476zM5.953 10.708l13.945-6.606-6.606 13.945-1.322-5.29c-0.092-0.369-0.378-0.638-0.728-0.728z"></path>
</svg>
