<!-- Generated by IcoMoon.io -->
<svg version="1.1" xmlns="http://www.w3.org/2000/svg" width="24" height="24" viewBox="0 0 24 24">
<title>pie-chart</title>
<path d="M20.289 15.501c-0.968 2.289-2.771 3.968-4.906 4.835s-4.599 0.917-6.888-0.051-3.968-2.771-4.835-4.906-0.918-4.6 0.050-6.889c0.936-2.214 2.652-3.856 4.689-4.743 0.506-0.221 0.738-0.81 0.518-1.316s-0.81-0.738-1.316-0.518c-2.489 1.084-4.589 3.094-5.733 5.798-1.183 2.798-1.119 5.812-0.062 8.419s3.112 4.814 5.909 5.997 5.812 1.119 8.419 0.062 4.814-3.112 5.997-5.909c0.215-0.509-0.023-1.095-0.532-1.311s-1.095 0.023-1.311 0.532zM20.945 11h-7.945v-7.945c2.086 0.23 3.956 1.173 5.364 2.581s2.351 3.278 2.581 5.364zM23 12c0-3.037-1.232-5.789-3.222-7.778s-4.741-3.222-7.778-3.222c-0.552 0-1 0.448-1 1v10c0 0.552 0.448 1 1 1h10c0.552 0 1-0.448 1-1z"></path>
</svg>
