<!-- Generated by IcoMoon.io -->
<svg version="1.1" xmlns="http://www.w3.org/2000/svg" width="24" height="24" viewBox="0 0 24 24">
<title>play-circle</title>
<path d="M23 12c0-3.037-1.232-5.789-3.222-7.778s-4.741-3.222-7.778-3.222-5.789 1.232-7.778 3.222-3.222 4.741-3.222 7.778 1.232 5.789 3.222 7.778 4.741 3.222 7.778 3.222 5.789-1.232 7.778-3.222 3.222-4.741 3.222-7.778zM21 12c0 2.486-1.006 4.734-2.636 6.364s-3.878 2.636-6.364 2.636-4.734-1.006-6.364-2.636-2.636-3.878-2.636-6.364 1.006-4.734 2.636-6.364 3.878-2.636 6.364-2.636 4.734 1.006 6.364 2.636 2.636 3.878 2.636 6.364zM10.555 7.168c-0.156-0.105-0.348-0.168-0.555-0.168-0.552 0-1 0.448-1 1v8c-0.001 0.188 0.053 0.383 0.168 0.555 0.306 0.46 0.927 0.584 1.387 0.277l6-4c0.103-0.068 0.2-0.162 0.277-0.277 0.306-0.46 0.182-1.080-0.277-1.387zM11 9.869l3.197 2.131-3.197 2.131z"></path>
</svg>
