<!-- Generated by IcoMoon.io -->
<svg version="1.1" xmlns="http://www.w3.org/2000/svg" width="24" height="24" viewBox="0 0 24 24">
<title>printer</title>
<path d="M17 8h-10v-5h10zM5 19v3c0 0.552 0.448 1 1 1h12c0.552 0 1-0.448 1-1v-3h1c0.828 0 1.58-0.337 2.121-0.879s0.879-1.293 0.879-2.121v-5c0-0.828-0.337-1.58-0.879-2.121s-1.293-0.879-2.121-0.879h-1v-6c0-0.552-0.448-1-1-1h-12c-0.552 0-1 0.448-1 1v6h-1c-0.828 0-1.58 0.337-2.121 0.879s-0.879 1.293-0.879 2.121v5c0 0.828 0.337 1.58 0.879 2.121s1.293 0.879 2.121 0.879zM6 13c-0.552 0-1 0.448-1 1v3h-1c-0.276 0-0.525-0.111-0.707-0.293s-0.293-0.431-0.293-0.707v-5c0-0.276 0.111-0.525 0.293-0.707s0.431-0.293 0.707-0.293h16c0.276 0 0.525 0.111 0.707 0.293s0.293 0.431 0.293 0.707v5c0 0.276-0.111 0.525-0.293 0.707s-0.431 0.293-0.707 0.293h-1v-3c0-0.552-0.448-1-1-1zM7 15h10v6h-10z"></path>
</svg>
