<!-- Generated by IcoMoon.io -->
<svg version="1.1" xmlns="http://www.w3.org/2000/svg" width="24" height="24" viewBox="0 0 24 24">
<title>refresh-cw</title>
<path d="M4.453 9.334c0.737-2.083 2.247-3.669 4.096-4.552s4.032-1.059 6.114-0.322c1.186 0.42 2.206 1.088 2.983 1.88l2.83 2.66h-3.476c-0.552 0-1 0.448-1 1s0.448 1 1 1h5.997c0.005 0 0.009 0 0.014 0 0.137-0.001 0.268-0.031 0.386-0.082 0.119-0.051 0.229-0.126 0.324-0.225 0.012-0.013 0.024-0.026 0.036-0.039 0.075-0.087 0.133-0.183 0.173-0.285s0.064-0.211 0.069-0.326c0.001-0.015 0.001-0.029 0.001-0.043v-6c0-0.552-0.448-1-1-1s-1 0.448-1 1v3.689l-2.926-2.749c-0.992-1.010-2.271-1.843-3.743-2.364-2.603-0.921-5.335-0.699-7.643 0.402s-4.199 3.086-5.12 5.689c-0.185 0.52 0.088 1.091 0.608 1.276s1.092-0.088 1.276-0.609zM2 16.312l2.955 2.777c1.929 1.931 4.49 2.908 7.048 2.909s5.119-0.975 7.072-2.927c1.104-1.104 1.901-2.407 2.361-3.745 0.18-0.522-0.098-1.091-0.621-1.271s-1.091 0.098-1.271 0.621c-0.361 1.050-0.993 2.091-1.883 2.981-1.563 1.562-3.609 2.342-5.657 2.342s-4.094-0.782-5.679-2.366l-2.8-2.633h3.475c0.552 0 1-0.448 1-1s-0.448-1-1-1h-5.997c-0.005 0-0.009 0-0.014 0-0.137 0.001-0.268 0.031-0.386 0.082-0.119 0.051-0.229 0.126-0.324 0.225-0.012 0.013-0.024 0.026-0.036 0.039-0.075 0.087-0.133 0.183-0.173 0.285s-0.064 0.211-0.069 0.326c-0.001 0.015-0.001 0.029-0.001 0.043v6c0 0.552 0.448 1 1 1s1-0.448 1-1z"></path>
</svg>
