<!-- Generated by IcoMoon.io -->
<svg version="1.1" xmlns="http://www.w3.org/2000/svg" width="24" height="24" viewBox="0 0 24 24">
<title>rewind</title>
<path d="M10 16.955l-6.371-4.955 6.371-4.955zM21.386 19.789c0.168 0.132 0.382 0.211 0.614 0.211 0.552 0 1-0.448 1-1v-14c0.001-0.213-0.068-0.43-0.211-0.614-0.339-0.436-0.967-0.514-1.403-0.175l-9 7c-0.061 0.046-0.122 0.106-0.175 0.175-0.14 0.18-0.209 0.392-0.211 0.604v-6.99c0.001-0.213-0.068-0.43-0.211-0.614-0.339-0.436-0.967-0.514-1.403-0.175l-9 7c-0.061 0.046-0.122 0.106-0.175 0.175-0.339 0.436-0.261 1.064 0.175 1.403l9 7c0.168 0.132 0.382 0.211 0.614 0.211 0.552 0 1-0.448 1-1v-6.991c0.003 0.295 0.135 0.585 0.386 0.78zM21 16.955l-6.371-4.955 6.371-4.955z"></path>
</svg>
