<!-- Generated by IcoMoon.io -->
<svg version="1.1" xmlns="http://www.w3.org/2000/svg" width="24" height="24" viewBox="0 0 24 24">
<title>rotate-cw</title>
<path d="M19.547 14.667c-0.736 2.083-2.245 3.67-4.094 4.553s-4.031 1.061-6.114 0.325-3.67-2.245-4.553-4.094-1.061-4.031-0.325-6.114 2.245-3.67 4.094-4.553 4.031-1.061 6.114-0.325c1.188 0.42 2.209 1.088 2.987 1.882l2.824 2.659h-3.48c-0.552 0-1 0.448-1 1s0.448 1 1 1h5.997c0.004 0 0.009 0 0.013 0 0.137-0.001 0.267-0.030 0.386-0.082 0.119-0.051 0.229-0.126 0.324-0.225 0.012-0.012 0.023-0.025 0.034-0.038 0.076-0.087 0.134-0.184 0.175-0.287s0.065-0.213 0.069-0.328c0.002-0.014 0.002-0.028 0.002-0.042v-5.998c0-0.552-0.448-1-1-1s-1 0.448-1 1v3.685l-2.916-2.745c-0.993-1.012-2.274-1.846-3.748-2.366-2.604-0.921-5.336-0.698-7.644 0.405s-4.197 3.088-5.117 5.692-0.696 5.335 0.406 7.643 3.088 4.197 5.692 5.117 5.335 0.697 7.643-0.406 4.197-3.088 5.117-5.692c0.184-0.521-0.089-1.092-0.61-1.276s-1.092 0.089-1.276 0.61z"></path>
</svg>
