<!-- Generated by IcoMoon.io -->
<svg version="1.1" xmlns="http://www.w3.org/2000/svg" width="24" height="24" viewBox="0 0 24 24">
<title>rss</title>
<path d="M4 12c2.209 0 4.208 0.894 5.657 2.343s2.343 3.448 2.343 5.657c0 0.552 0.448 1 1 1s1-0.448 1-1c0-2.761-1.12-5.263-2.929-7.071s-4.31-2.929-7.071-2.929c-0.552 0-1 0.448-1 1s0.448 1 1 1zM4 5c4.142 0 7.891 1.678 10.607 4.393s4.393 6.465 4.393 10.607c0 0.552 0.448 1 1 1s1-0.448 1-1c0-4.694-1.904-8.946-4.979-12.021s-7.327-4.979-12.021-4.979c-0.552 0-1 0.448-1 1s0.448 1 1 1zM7 19c0-0.552-0.225-1.053-0.586-1.414s-0.862-0.586-1.414-0.586-1.053 0.225-1.414 0.586-0.586 0.862-0.586 1.414 0.225 1.053 0.586 1.414 0.862 0.586 1.414 0.586 1.053-0.225 1.414-0.586 0.586-0.862 0.586-1.414z"></path>
</svg>
