<!-- Generated by IcoMoon.io -->
<svg version="1.1" xmlns="http://www.w3.org/2000/svg" width="24" height="24" viewBox="0 0 24 24">
<title>save</title>
<path d="M19 22c0.828 0 1.58-0.337 2.121-0.879s0.879-1.293 0.879-2.121v-11c0-0.256-0.098-0.512-0.293-0.707l-5-5c-0.181-0.181-0.431-0.293-0.707-0.293h-11c-0.828 0-1.58 0.337-2.121 0.879s-0.879 1.293-0.879 2.121v14c0 0.828 0.337 1.58 0.879 2.121s1.293 0.879 2.121 0.879zM8 20v-6h8v6zM6 4v4c0 0.552 0.448 1 1 1h8c0.552 0 1-0.448 1-1s-0.448-1-1-1h-7v-3h7.586l4.414 4.414v10.586c0 0.276-0.111 0.525-0.293 0.707s-0.431 0.293-0.707 0.293h-1v-7c0-0.552-0.448-1-1-1h-10c-0.552 0-1 0.448-1 1v7h-1c-0.276 0-0.525-0.111-0.707-0.293s-0.293-0.431-0.293-0.707v-14c0-0.276 0.111-0.525 0.293-0.707s0.431-0.293 0.707-0.293z"></path>
</svg>
