<!-- Generated by IcoMoon.io -->
<svg version="1.1" xmlns="http://www.w3.org/2000/svg" width="24" height="24" viewBox="0 0 24 24">
<title>scissors</title>
<path d="M7.378 16.551c0.011 0.012 0.023 0.025 0.035 0.036s0.024 0.023 0.036 0.035c0.343 0.359 0.551 0.843 0.551 1.378 0 0.553-0.223 1.051-0.586 1.414s-0.861 0.586-1.414 0.586-1.051-0.223-1.414-0.586-0.586-0.861-0.586-1.414 0.223-1.051 0.586-1.414 0.861-0.586 1.414-0.586c0.535 0 1.019 0.208 1.378 0.551zM13.764 15.188l5.53 5.52c0.391 0.39 1.024 0.39 1.414-0.001s0.39-1.024-0.001-1.414l-5.53-5.52c-0.391-0.39-1.024-0.39-1.414 0.001s-0.39 1.024 0.001 1.414zM7.449 7.378c-0.012 0.011-0.024 0.023-0.036 0.035s-0.024 0.024-0.035 0.036c-0.359 0.343-0.843 0.551-1.378 0.551-0.553 0-1.051-0.223-1.414-0.586s-0.586-0.861-0.586-1.414 0.223-1.051 0.586-1.414 0.861-0.586 1.414-0.586 1.051 0.223 1.414 0.586 0.586 0.861 0.586 1.414c0 0.535-0.208 1.019-0.551 1.378zM8.032 9.446l2.554 2.554-2.554 2.554c-0.596-0.352-1.291-0.554-2.032-0.554-1.104 0-2.106 0.449-2.828 1.172s-1.172 1.724-1.172 2.828 0.449 2.106 1.172 2.828 1.724 1.172 2.828 1.172 2.106-0.449 2.828-1.172 1.172-1.724 1.172-2.828c0-0.741-0.202-1.436-0.554-2.032l11.261-11.261c0.391-0.391 0.391-1.024 0-1.414s-1.024-0.391-1.414 0l-7.293 7.293-2.554-2.554c0.352-0.596 0.554-1.291 0.554-2.032 0-1.104-0.449-2.106-1.172-2.828s-1.724-1.172-2.828-1.172-2.106 0.449-2.828 1.172-1.172 1.724-1.172 2.828 0.449 2.106 1.172 2.828 1.724 1.172 2.828 1.172c0.741 0 1.436-0.202 2.032-0.554z"></path>
</svg>
