<!-- Generated by IcoMoon.io -->
<svg version="1.1" xmlns="http://www.w3.org/2000/svg" width="24" height="24" viewBox="0 0 24 24">
<title>shuffle</title>
<path d="M4.707 20.707l15.293-15.293v2.586c0 0.552 0.448 1 1 1s1-0.448 1-1v-5c0-0.136-0.027-0.265-0.076-0.383s-0.121-0.228-0.216-0.323c-0.001-0.001-0.001-0.001-0.002-0.002-0.092-0.092-0.202-0.166-0.323-0.216-0.118-0.049-0.247-0.076-0.383-0.076h-5c-0.552 0-1 0.448-1 1s0.448 1 1 1h2.586l-15.293 15.293c-0.391 0.391-0.391 1.024 0 1.414s1.024 0.391 1.414 0zM14.293 15.707l4.293 4.293h-2.586c-0.552 0-1 0.448-1 1s0.448 1 1 1h5c0.13 0 0.261-0.025 0.383-0.076s0.232-0.125 0.324-0.217c0.096-0.096 0.168-0.206 0.217-0.324s0.076-0.247 0.076-0.383v-5c0-0.552-0.448-1-1-1s-1 0.448-1 1v2.586l-4.293-4.293c-0.391-0.391-1.024-0.391-1.414 0s-0.391 1.024 0 1.414zM3.293 4.707l5 5c0.391 0.391 1.024 0.391 1.414 0s0.391-1.024 0-1.414l-5-5c-0.391-0.391-1.024-0.391-1.414 0s-0.391 1.024 0 1.414z"></path>
</svg>
