<!-- Generated by IcoMoon.io -->
<svg version="1.1" xmlns="http://www.w3.org/2000/svg" width="24" height="24" viewBox="0 0 24 24">
<title>skip-forward</title>
<path d="M5.625 3.219c-0.17-0.136-0.388-0.219-0.625-0.219-0.552 0-1 0.448-1 1v16c-0.001 0.218 0.071 0.439 0.219 0.625 0.345 0.431 0.974 0.501 1.406 0.156l10-8c0.053-0.042 0.108-0.095 0.156-0.156 0.345-0.431 0.275-1.061-0.156-1.406zM6 6.081l7.399 5.919-7.399 5.919zM18 5v14c0 0.552 0.448 1 1 1s1-0.448 1-1v-14c0-0.552-0.448-1-1-1s-1 0.448-1 1z"></path>
</svg>
