<!-- Generated by IcoMoon.io -->
<svg version="1.1" xmlns="http://www.w3.org/2000/svg" width="24" height="24" viewBox="0 0 24 24">
<title>unlock</title>
<path d="M5 12h14c0.276 0 0.525 0.111 0.707 0.293s0.293 0.431 0.293 0.707v7c0 0.276-0.111 0.525-0.293 0.707s-0.431 0.293-0.707 0.293h-14c-0.276 0-0.525-0.111-0.707-0.293s-0.293-0.431-0.293-0.707v-7c0-0.276 0.111-0.525 0.293-0.707s0.431-0.293 0.707-0.293zM8 10v-3c-0.001-1.106 0.445-2.105 1.169-2.831 0.723-0.724 1.719-1.172 2.821-1.174 1.030 0.003 1.948 0.378 2.652 1 0.638 0.565 1.097 1.332 1.28 2.209 0.113 0.541 0.642 0.888 1.183 0.775s0.888-0.642 0.775-1.183c-0.272-1.307-0.958-2.454-1.912-3.299-1.060-0.938-2.452-1.504-3.973-1.502-1.657 0.002-3.157 0.676-4.241 1.762s-1.756 2.587-1.754 4.243v3h-1c-0.828 0-1.58 0.337-2.121 0.879s-0.879 1.293-0.879 2.121v7c0 0.828 0.337 1.58 0.879 2.121s1.293 0.879 2.121 0.879h14c0.828 0 1.58-0.337 2.121-0.879s0.879-1.293 0.879-2.121v-7c0-0.828-0.337-1.58-0.879-2.121s-1.293-0.879-2.121-0.879z"></path>
</svg>
