<!-- Generated by IcoMoon.io -->
<svg version="1.1" xmlns="http://www.w3.org/2000/svg" width="24" height="24" viewBox="0 0 24 24">
<title>wind</title>
<path d="M10.299 5.295c0.195-0.196 0.449-0.294 0.706-0.295s0.512 0.096 0.708 0.291 0.294 0.449 0.295 0.706-0.096 0.512-0.291 0.708c-0.192 0.194-0.442 0.292-0.697 0.295h-9.020c-0.552 0-1 0.448-1 1s0.448 1 1 1h9.043c0.758-0.009 1.516-0.304 2.093-0.885 0.584-0.587 0.875-1.358 0.872-2.124s-0.298-1.535-0.885-2.119-1.357-0.874-2.123-0.872-1.535 0.298-2.119 0.885c-0.39 0.392-0.388 1.025 0.004 1.414s1.025 0.387 1.414-0.004zM11.881 20.115c0.584 0.587 1.352 0.883 2.119 0.885s1.537-0.289 2.124-0.872 0.883-1.352 0.885-2.119-0.289-1.537-0.872-2.124c-0.577-0.581-1.335-0.876-2.093-0.885h-12.044c-0.552 0-1 0.448-1 1s0.448 1 1 1h12.020c0.255 0.003 0.505 0.101 0.698 0.295 0.195 0.196 0.292 0.451 0.291 0.708s-0.099 0.511-0.295 0.706-0.451 0.292-0.708 0.291-0.511-0.099-0.706-0.295c-0.389-0.392-1.023-0.394-1.414-0.004s-0.394 1.023-0.004 1.414zM18.436 8.438c0.294-0.293 0.676-0.438 1.061-0.438s0.767 0.147 1.060 0.441 0.438 0.676 0.438 1.061-0.147 0.767-0.441 1.060c-0.292 0.292-0.673 0.437-1.057 0.438h-17.497c-0.552 0-1 0.448-1 1s0.448 1 1 1h17.502c0.891-0.002 1.784-0.342 2.466-1.022 0.684-0.682 1.027-1.579 1.028-2.474s-0.34-1.792-1.022-2.476-1.58-1.027-2.474-1.028-1.792 0.34-2.476 1.022c-0.391 0.39-0.392 1.023-0.002 1.414s1.023 0.392 1.414 0.002z"></path>
</svg>
