<!-- Generated by IcoMoon.io -->
<svg version="1.1" xmlns="http://www.w3.org/2000/svg" width="24" height="24" viewBox="0 0 24 24">
<title>zap-off</title>
<path d="M13.402 6.873l0.59-4.75c0.068-0.548-0.321-1.048-0.869-1.116-0.349-0.043-0.678 0.099-0.892 0.353l-2.43 2.92c-0.353 0.425-0.295 1.055 0.129 1.409s1.055 0.296 1.408-0.129l0.249-0.299-0.17 1.366c-0.068 0.548 0.321 1.048 0.869 1.116s1.048-0.321 1.116-0.869zM19.338 13.551l2.43-2.91c0.354-0.424 0.297-1.055-0.127-1.409-0.188-0.156-0.416-0.233-0.641-0.232h-5.34c-0.552 0-1 0.448-1 1s0.448 1 1 1h3.202l-1.060 1.269c-0.354 0.424-0.297 1.055 0.127 1.409s1.055 0.297 1.409-0.127zM12.961 14.375l1.686 1.686-2.232 2.678zM8.067 9.481l3.519 3.519h-6.451zM0.293 1.707l6.354 6.354-4.415 5.299c-0.354 0.424-0.296 1.055 0.128 1.408 0.187 0.157 0.415 0.233 0.64 0.232h7.867l-0.859 6.876c-0.069 0.548 0.32 1.048 0.868 1.116 0.349 0.044 0.678-0.098 0.892-0.352l4.299-5.159 6.226 6.226c0.391 0.391 1.024 0.391 1.414 0s0.391-1.024 0-1.414l-22-22c-0.391-0.391-1.024-0.391-1.414 0s-0.391 1.024 0 1.414z"></path>
</svg>
